<?xml version="1.0" encoding="UTF-8"?>
<svg id="Ebene_1" data-name="Ebene 1" xmlns="http://www.w3.org/2000/svg" viewBox="0 0 818.29 1189.86">
  <defs>
    <style>
      .cls-1 {
        fill: #e09f3e;
      }
    </style>
  </defs>
  <path class="cls-1" d="M409.15,0s0,0,0,0,0,0,0,0c-113.23,0-215.72,45.98-289.81,120.29l119.25,119.25c44.77-43.76,106.37-70.79,174.38-70.79,0,0,0,0,0,0,0,0,0,0,0,0,55.33,0,106.41,17.9,147.64,48.13l21.77-21.77,94.97-94.97C605.53,37.77,511.75,0,409.15,0Z"/>
  <path class="cls-1" d="M98.92,142.31C41.28,209.24,4.91,295.03.36,389.17h165.99c4.73-47.84,23.46-91.63,52.07-127.36l-119.49-119.49Z"/>
  <path class="cls-1" d="M778.02,231.77c-19.96-41.4-46.69-78.91-78.74-111.13l-111.13,111.13h189.87Z"/>
  <path class="cls-1" d="M607.5,261.77c28.62,35.74,47.36,79.54,52.09,127.4h158.35c-2.16-44.73-11.51-87.56-26.91-127.4h-183.53Z"/>
  <path class="cls-1" d="M675.16,507.85c31.59,31.59,63.19,63.19,94.78,94.78,29.46-54.86,46.78-117.21,48.35-183.46h-157.59c-.54,22.19-4.07,43.65-10.22,64,8.23,8.23,16.46,16.46,24.68,24.68Z"/>
  <path class="cls-1" d="M638.82,513.94c-23.99,52.29-66.09,94.76-118.4,119.63,47.68,47.68,95.36,95.36,143.04,143.04l87.38-141.99c1.15-1.74,2.29-3.5,3.41-5.26l-115.43-115.43Z"/>
  <path class="cls-1" d="M165.23,419.17H0c1.89,79.51,26.43,153.4,67.45,215.46l82.32,133.76c33.2-33.2,66.4-66.4,99.59-99.59l42.34-42.34c-73.88-40.98-124.31-118.23-126.47-207.28Z"/>
  <path class="cls-1" d="M412.97,657.68h-.02c-32.69,0-63.89-6.26-92.46-17.6-43.85,43.85-87.7,87.7-131.55,131.55l-23.02,23.02,243.22,395.21,238.16-386.99c-52.42-52.42-104.84-104.84-157.27-157.27-24.26,7.82-50.15,12.07-77.06,12.07Z"/>
</svg>